<svg width="122" height="111" viewBox="0 0 122 111" fill="none" xmlns="http://www.w3.org/2000/svg">
<rect width="21.2813" height="5.40163" transform="matrix(0.93685 0.349731 -0.46899 0.883204 34.8028 0)" fill="#FC9E1C"/>
<rect width="5.23858" height="6.21463" transform="matrix(-0.144896 -0.989447 0.994742 -0.102408 72.1731 109.667)" fill="#FF21FB" fill-opacity="0.45"/>
<ellipse cx="31.8864" cy="18.5" rx="2.77273" ry="2.22" fill="#755FFE" fill-opacity="0.85"/>
<ellipse cx="20.7956" cy="29.6" rx="4.15909" ry="2.96" fill="#03A3F5" fill-opacity="0.35"/>
<ellipse cx="119.227" cy="8.14" rx="2.77273" ry="2.22" fill="#755FFE" fill-opacity="0.85"/>
<ellipse cx="63.7728" cy="76.22" rx="4.15909" ry="3.7" fill="#480CA7" fill-opacity="0.75"/>
<ellipse cx="38.8183" cy="61.42" rx="4.15909" ry="3.7" fill="#FC9E1C" fill-opacity="0.75"/>
<path d="M85.8348 93.1538L84.2687 97.4487L79.0496 98.459L75.3965 95.1744L76.9626 90.8795L82.1817 89.8692L85.8348 93.1538Z" fill="#FFED36" fill-opacity="0.85"/>
<path d="M55.5809 103.356L54.1644 108.501L47.8915 108.961L45.4312 104.101L50.1835 100.637L55.5809 103.356Z" fill="#755FFE" fill-opacity="0.45"/>
<path d="M2.90762 54.9109L5.17591 51.7456L8.95099 53.6475L6.68269 56.8127L2.90762 54.9109Z" fill="#480CA7" fill-opacity="0.35"/>
<path d="M91.5056 75.7793L93.5894 73.8389L96.6356 74.3817L97.5979 76.8651L95.5141 78.8055L92.468 78.2626L91.5056 75.7793Z" fill="#FFED36" fill-opacity="0.9"/>
<path d="M80.5873 18.6131L71.8152 16.0805L78.817 10.9772L80.5873 18.6131Z" fill="#F54721" fill-opacity="0.6"/>
<path d="M68.852 46.0643L72.8754 47.5662L71.084 50.9397L67.0607 49.4377L68.852 46.0643Z" fill="#F54721" fill-opacity="0.65"/>
<path d="M6.18044 69.4237L5.52484 71.3801L6.8694 73.0709L4.53605 72.5212L2.51949 73.6485L3.1751 71.6921L1.83054 70.0013L4.16389 70.551L6.18044 69.4237Z" fill="#C9FCBE" fill-opacity="0.65"/>
<path d="M89.5962 74.7936L89.2019 77.9015L92.8939 78.3326L89.4866 79.6003L90.8874 82.4967L87.8744 80.6564L85.5831 83.1217L85.9774 80.0138L82.2854 79.5827L85.6927 78.315L84.2919 75.4186L87.3049 77.2589L89.5962 74.7936Z" fill="#DCBCFA" fill-opacity="0.9"/>
<path d="M26.8306 100.198L30.0563 97.9839L30.1513 94.4895L32.7921 97.1941L36.9597 97.2737L33.7341 99.4879L33.639 102.982L30.9983 100.278L26.8306 100.198Z" fill="#9AF5FC" fill-opacity="0.9"/>
</svg>
